<svg width="24" height="24" viewBox="0 0 24 24" fill="none" xmlns="http://www.w3.org/2000/svg">
<path fill-rule="evenodd" clip-rule="evenodd" d="M10.857 15.272C10.006 15.736 9.03 16 7.992 16C4.681 16 1.992 13.311 1.992 10C1.992 6.689 4.681 4 7.992 4C11.304 4 13.992 6.689 13.992 10C13.992 11.548 13.404 12.961 12.44 14.026L16.707 18.293C17.097 18.683 17.097 19.317 16.707 19.707C16.317 20.098 15.683 20.098 15.293 19.707L10.857 15.272ZM7.992 6C10.2 6 11.992 7.792 11.992 10C11.992 12.208 10.2 14 7.992 14C5.785 14 3.992 12.208 3.992 10C3.992 7.792 5.785 6 7.992 6ZM21 12H19C18.448 12 18 12.448 18 13C18 13.552 18.448 14 19 14H21C21.552 14 22 13.552 22 13C22 12.448 21.552 12 21 12ZM21 8H17C16.448 8 16 8.448 16 9C16 9.552 16.448 10 17 10H21C21.552 10 22 9.552 22 9C22 8.448 21.552 8 21 8ZM21 4H16C15.448 4 15 4.448 15 5C15 5.552 15.448 6 16 6H21C21.552 6 22 5.552 22 5C22 4.448 21.552 4 21 4Z" fill="#cf1136" id="id_101"></path>
</svg>